<svg width="1700" height="1651" viewBox="0 0 1700 1651" fill="none" xmlns="http://www.w3.org/2000/svg">
<rect x="319" width="212" height="850" rx="106" fill="#D9D9D9"/>
<rect y="531" width="212" height="850" rx="106" transform="rotate(-90 0 531)" fill="#D9D9D9"/>
<rect x="899.526" y="199.433" width="212" height="850" rx="106" transform="rotate(-45 899.526 199.433)" fill="#D9D9D9"/>
<rect x="1049.43" y="800.474" width="212" height="850" rx="106" transform="rotate(-135 1049.43 800.474)" fill="#D9D9D9"/>
<rect x="850" y="1381" width="212" height="850" rx="106" transform="rotate(-90 850 1381)" fill="#D9D9D9"/>
<rect x="199.433" y="1650.47" width="212" height="850" rx="106" transform="rotate(-135 199.433 1650.47)" fill="#D9D9D9"/>
<rect x="107" y="1169" width="212" height="212" rx="106" transform="rotate(-90 107 1169)" fill="#D9D9D9"/>
<rect x="743" y="1381" width="212" height="212" rx="106" transform="rotate(90 743 1381)" fill="#D9D9D9"/>
</svg>
